<svg width="404" height="100" viewBox="0 0 404 100" fill="none" xmlns="http://www.w3.org/2000/svg">
<path d="M87.6523 0V43.6577L110.701 22.3145L130.812 22.3914L106.685 45.748L131.549 77.3737H112.076L96.169 55.8026L87.6523 64.0108V77.3738H71.2975V0H87.6523Z" fill="white"/>
<path d="M142.846 99.1588V86.2573H163.993L167.408 77.3737H158.11L139.601 22.3052H156.387L170.829 65.5661L185.231 22.3052H200.726L181.949 77.9626C177.916 90.3362 174.514 93.6753 171.438 95.5793C168.815 97.203 165.85 98.1806 162.794 98.6082C158.874 99.1568 152.569 99.5786 142.846 99.1588Z" fill="white"/>
<path d="M226.667 77.0233C208.346 74.6534 209.535 54.2897 209.535 54.2897L209.526 22.2217H226.098L226.107 51.5359C226.107 51.5359 224.755 63.6657 235.964 63.8976C249.181 64.1711 249.563 49.3107 249.563 49.3107L249.555 22.2216H266.126L266.135 77.3736H249.637V65.0825C249.637 65.0825 245.067 79.4033 226.667 77.0233Z" fill="white"/>
<path d="M284.816 57.8514V34.9494H274.928V27.0264L286.022 22.3053L292.796 9.61548H301.184L301.232 22.3053H316.91L316.911 34.9494H301.142V64.3056L315.362 64.3968V77.3738H299.703C291.689 77.3738 285.137 70.9807 284.941 62.9686L284.816 57.8514Z" fill="white"/>
<path d="M387.007 13.6483V3.68011H403.149V13.6483H387.007ZM403.149 22.4411V77.3737H387.007V22.4411H403.149Z" fill="white"/>
<path d="M377.384 57.3516L377.335 39.3645C377.334 39.099 377.341 38.8336 377.348 38.5682C377.413 36.0562 376.928 19.3098 352.384 19.3105C325.098 19.3111 325.76 38.882 325.76 38.882H341.673C341.717 29.7133 352.384 30.4186 352.384 30.4186C352.384 30.4186 361.905 29.8895 362.302 35.62C362.699 41.3503 359.502 41.5745 354.809 42.3641C347.164 43.6506 347.976 42.849 335.457 46.2433C322.939 49.6373 324.658 63.4345 324.658 63.4345C324.658 63.4345 325.539 77.8046 343.48 77.3637C361.421 76.923 363.096 63.6989 363.096 63.6989C362.743 65.8149 364.021 77.3736 364.021 77.3736H378.214C377.333 75.2756 377.384 57.3516 377.384 57.3516ZM352.517 65.7708C352.517 65.7708 343.26 68.5037 340.835 61.7596C339.259 57.3758 342.284 54.8172 344.594 53.5632C345.667 52.9806 346.838 52.6078 348.038 52.3778C351.251 51.7618 360.154 49.8613 362.346 47.3455C362.346 47.3455 363.977 62.7293 352.517 65.7708Z" fill="white"/>
<path d="M37.1019 0.0418091C40.2319 0.0418091 42.3063 3.28791 40.9914 6.12841L9.18073 74.8464C8.47913 76.3619 6.96123 77.3319 5.29123 77.3319C2.16123 77.3319 0.0868254 74.0858 1.40173 71.2453L33.2124 2.52731C33.914 1.01181 35.4319 0.0418091 37.1019 0.0418091Z" fill="#39F2AE"/>
</svg>
